<svg width="48" height="48" viewBox="0 0 48 48" fill="none" xmlns="http://www.w3.org/2000/svg">
<g opacity="0.01">
<rect x="0.5" y="0.5" width="47" height="47" rx="3.5" fill="#EBEFF5" stroke="#4A96FF"/>
<path opacity="0.2" d="M24 13.25C29.9371 13.25 34.75 18.0629 34.75 24C34.75 29.9371 29.9371 34.75 24 34.75C18.0629 34.75 13.25 29.9371 13.25 24C13.25 18.0629 18.0629 13.25 24 13.25Z" stroke="#4A96FF" stroke-linecap="square"/>
<path opacity="0.2" d="M24 16.25C28.2802 16.25 31.75 19.7198 31.75 24C31.75 28.2802 28.2802 31.75 24 31.75C19.7198 31.75 16.25 28.2802 16.25 24C16.25 19.7198 19.7198 16.25 24 16.25Z" stroke="#4A96FF" stroke-linecap="square"/>
<path opacity="0.2" d="M0 12.9375H48" stroke="#4A96FF"/>
<path opacity="0.2" d="M0 24H48" stroke="#4A96FF"/>
<path opacity="0.2" d="M0 35.25H48" stroke="#4A96FF"/>
<path opacity="0.2" d="M24 48L24 0" stroke="#4A96FF"/>
<path opacity="0.2" d="M35.25 48V0" stroke="#4A96FF"/>
<path opacity="0.2" d="M12.75 48L12.75 0" stroke="#4A96FF"/>
<path opacity="0.2" d="M1.125 46.875L46.875 1.125" stroke="#4A96FF" stroke-linecap="square"/>
<path opacity="0.2" d="M46.875 46.875L1.125 1.125" stroke="#4A96FF" stroke-linecap="square"/>
<path d="M11.5 4.55H36.5C38.6815 4.55 40.45 6.31848 40.45 8.5V39.5C40.45 41.6815 38.6815 43.45 36.5 43.45H11.5C9.31848 43.45 7.55 41.6815 7.55 39.5V8.5C7.55 6.31848 9.31848 4.55 11.5 4.55Z" fill="#4A96FF" fill-opacity="0.04" stroke="#4A96FF" stroke-width="0.1" stroke-linecap="square"/>
<path d="M4.55 36.5V11.5C4.55 9.31848 6.31848 7.55 8.5 7.55H39.5C41.6815 7.55 43.45 9.31848 43.45 11.5V36.5C43.45 38.6815 41.6815 40.45 39.5 40.45H8.5C6.31848 40.45 4.55 38.6815 4.55 36.5Z" fill="#4A96FF" fill-opacity="0.04" stroke="#4A96FF" stroke-width="0.1" stroke-linecap="square"/>
<path d="M6.05 38V10C6.05 7.81848 7.81848 6.05 10 6.05H38C40.1815 6.05 41.95 7.81848 41.95 10V38C41.95 40.1815 40.1815 41.95 38 41.95H10C7.81848 41.95 6.05 40.1815 6.05 38Z" fill="#4A96FF" fill-opacity="0.04" stroke="#4A96FF" stroke-width="0.1" stroke-linecap="square"/>
<path d="M24 4.55C34.7419 4.55 43.45 13.2581 43.45 24C43.45 34.7419 34.7419 43.45 24 43.45C13.2581 43.45 4.55 34.7419 4.55 24C4.55 13.2581 13.2581 4.55 24 4.55Z" fill="#4A96FF" fill-opacity="0.04" stroke="#4A96FF" stroke-width="0.1" stroke-linecap="square"/>
</g>
<path fill-rule="evenodd" clip-rule="evenodd" d="M24 44C35.0457 44 44 35.0457 44 24C44 12.9543 35.0457 4 24 4C12.9543 4 4 12.9543 4 24C4 35.0457 12.9543 44 24 44ZM22.4617 16.3071C22.4617 15.4574 23.1505 14.7686 24.0002 14.7686C24.8499 14.7686 25.5387 15.4574 25.5387 16.3071V22.461H31.6925C32.5422 22.461 33.231 23.1498 33.231 23.9994C33.231 24.8491 32.5422 25.5379 31.6925 25.5379H25.5387V31.6917C25.5387 32.5414 24.8499 33.2302 24.0002 33.2302C23.1505 33.2302 22.4617 32.5414 22.4617 31.6917V25.5379H16.3079C15.4582 25.5379 14.7694 24.8491 14.7694 23.9994C14.7694 23.1498 15.4582 22.461 16.3079 22.461H22.4617V16.3071Z" fill="#131212"/>
</svg>
