<svg width="48" height="48" viewBox="0 0 48 48" fill="none" xmlns="http://www.w3.org/2000/svg">
<path fill-rule="evenodd" clip-rule="evenodd" d="M24.9964 6.98267C25.7641 7.36183 26.25 8.14382 26.25 9.00002V40.5C26.25 41.3562 25.7641 42.1382 24.9964 42.5174C24.2287 42.8965 23.3124 42.8071 22.6325 42.2867L12.1822 34.2884H8.88C6.04678 34.2884 3.75 31.9916 3.75 29.1584V19.8414C3.75 17.0082 6.04678 14.7114 8.88 14.7114H12.8258C12.829 14.7114 12.8323 14.7114 12.8355 14.7115L22.6325 7.21327C23.3124 6.6929 24.2287 6.60351 24.9964 6.98267ZM21.75 13.5554L14.863 18.8264C14.3258 19.2375 13.6322 19.3852 12.9742 19.2285C12.9289 19.2177 12.8795 19.2114 12.8258 19.2114H8.88C8.53206 19.2114 8.25 19.4935 8.25 19.8414V29.1584C8.25 29.5063 8.53206 29.7884 8.88 29.7884H12.8258C12.835 29.7884 12.8439 29.7882 12.8526 29.7878C13.377 29.7671 13.8922 29.9304 14.3089 30.2494L21.75 35.9445V13.5554ZM40.8 9.15002C41.5456 10.1441 41.3441 11.5544 40.35 12.3L34.35 16.8C33.3559 17.5456 31.9456 17.3441 31.2 16.35C30.4544 15.3559 30.6559 13.9456 31.65 13.2L37.65 8.70002C38.6441 7.95443 40.0544 8.1559 40.8 9.15002ZM30.75 24.75C30.75 23.5074 31.7574 22.5 33 22.5H40C41.2426 22.5 42.25 23.5074 42.25 24.75C42.25 25.9927 41.2426 27 40 27H33C31.7574 27 30.75 25.9927 30.75 24.75ZM31.2 33.15C31.9456 32.1559 33.3559 31.9544 34.35 32.7L40.35 37.2C41.3441 37.9456 41.5456 39.3559 40.8 40.35C40.0544 41.3441 38.6441 41.5456 37.65 40.8L31.65 36.3C30.6559 35.5544 30.4544 34.1441 31.2 33.15Z" fill="#131212"/>
</svg>
